X Lossless Decoder version 20110502 (132.0)

XLD extraction logfile from 2011-05-04 21:56:54 +0900

XTC / I'd Like That

Used drive : MATSHITA DVD-R   UJ-868 (revision KB19)

Ripper mode             : CDParanoia III 10.2
Disable audio cache     : OK for the drive with a cache less than 2750KiB
Make use of C2 pointers : NO
Read offset correction  : 102
Max retry count         : 100
Gap status              : Analyzed, Appended

TOC of the extracted CD
     Track |   Start  |  Length  | Start sector | End sector 
    ---------------------------------------------------------
        1  | 00:00:00 | 04:00:37 |         0    |    18036   
        2  | 04:00:37 | 03:45:28 |     18037    |    34939   
        3  | 07:45:65 | 11:50:22 |     34940    |    88211   

AccurateRip Summary
    Track 01 : OK (confidence 10)
    Track 02 : OK (confidence 9)
    Track 03 : OK (confidence 10)
        ->All tracks accurately ripped.

All Tracks
    Filename : /Users/m4c/Public/flac/I'd Like That.flac
    CRC32 hash             : 54349AD7
    CRC32 hash (skip zero) : B29786C7
    Statistics
        Read error                           : 0
        Skipped (treated as error)           : 0
        Edge jitter error (maybe fixed)      : 0
        Atom jitter error (maybe fixed)      : 0
        Drift error (maybe fixed)            : 0
        Dropped bytes error (maybe fixed)    : 0
        Duplicated bytes error (maybe fixed) : 0

Track 01
    Pre-gap length : 00:02:00

    CRC32 hash             : F12A4284
    CRC32 hash (skip zero) : BC48E774
    AccurateRip signature  : 95B79A8E
        ->Accurately ripped! (confidence 10)
    Statistics
        Read error                           : 0
        Skipped (treated as error)           : 0
        Edge jitter error (maybe fixed)      : 0
        Atom jitter error (maybe fixed)      : 0
        Drift error (maybe fixed)            : 0
        Dropped bytes error (maybe fixed)    : 0
        Duplicated bytes error (maybe fixed) : 0

Track 02
    Pre-gap length : 00:02:70

    CRC32 hash             : 341D3B95
    CRC32 hash (skip zero) : 8A5447A1
    AccurateRip signature  : 62062195
        ->Accurately ripped! (confidence 9)
    Statistics
        Read error                           : 0
        Skipped (treated as error)           : 0
        Edge jitter error (maybe fixed)      : 0
        Atom jitter error (maybe fixed)      : 0
        Drift error (maybe fixed)            : 0
        Dropped bytes error (maybe fixed)    : 0
        Duplicated bytes error (maybe fixed) : 0

Track 03
    Pre-gap length : 00:01:65

    CRC32 hash             : ADD564F1
    CRC32 hash (skip zero) : 89DA37A5
    AccurateRip signature  : 6A67B8F8
        ->Accurately ripped! (confidence 10)
    Statistics
        Read error                           : 0
        Skipped (treated as error)           : 0
        Edge jitter error (maybe fixed)      : 0
        Atom jitter error (maybe fixed)      : 0
        Drift error (maybe fixed)            : 0
        Dropped bytes error (maybe fixed)    : 0
        Duplicated bytes error (maybe fixed) : 0

No errors occurred

End of status report
